<?xml version="1.0" encoding="UTF-8"?>
<svg version="1.1" xmlns="http://www.w3.org/2000/svg" width="256" height="256">
<path d="M0 0 C3.25045344 1.65589137 5.37527133 2.8628552 7.14981079 6.09291077 C8.30560281 10.04496107 8.29503752 13.72806109 8.29052734 17.82592773 C8.30060318 19.14392868 8.30060318 19.14392868 8.31088257 20.48855591 C8.32984735 23.3869597 8.33378578 26.28513181 8.3359375 29.18359375 C8.34236569 31.20231725 8.34909406 33.22103981 8.35610962 35.23976135 C8.36807801 39.46886353 8.37179081 43.69788404 8.37060547 47.92700195 C8.37040212 53.3420482 8.39772237 58.75657054 8.43214989 64.17149258 C8.45440101 68.33997497 8.45844358 72.50833083 8.45738602 76.67686653 C8.45974397 78.67313508 8.4685784 80.66940701 8.48405075 82.66561699 C8.50367757 85.45900958 8.49788606 88.2512663 8.48583984 91.04467773 C8.50269836 92.27691322 8.50269836 92.27691322 8.51989746 93.53404236 C8.46217515 98.80957083 7.51077635 101.82494016 4 106 C-0.03160965 108.68773977 -3.26423878 108.67415933 -8 108 C-12.11444859 105.6363806 -13.63009882 103.46417455 -15 99 C-15.19276055 96.09195012 -15.28362436 93.28059166 -15.2746582 90.37353516 C-15.27976913 89.51598129 -15.28488007 88.65842743 -15.29014587 87.77488708 C-15.30402086 84.94620745 -15.30308655 82.11777207 -15.30078125 79.2890625 C-15.30466958 77.31757517 -15.30900453 75.34608868 -15.31376648 73.37460327 C-15.32122438 69.24384851 -15.3209407 65.11317922 -15.31567383 60.98242188 C-15.30988251 55.69759029 -15.3268042 50.41310955 -15.3500185 45.12833595 C-15.36477503 41.05675217 -15.36562487 36.98525248 -15.36250877 32.9136467 C-15.36302111 30.96566448 -15.36824234 29.01767744 -15.37832069 27.06972122 C-15.39070371 24.34133596 -15.38388206 21.61362891 -15.37231445 18.88525391 C-15.37995819 18.08606033 -15.38760193 17.28686676 -15.39547729 16.4634552 C-15.34684417 11.25468305 -14.4407725 7.62658737 -12 3 C-8.18550276 -0.28470595 -4.93235069 -0.60572728 0 0 Z " fill="#ffffff" transform="translate(153,74)"/>
<path d="M0 0 C0.74121094 0.04125 1.48242188 0.0825 2.24609375 0.125 C5.7477246 1.4477071 7.74367995 3.82568934 9.5625 7 C10.2604333 10.08652125 10.22697823 13.0765264 10.17773438 16.23071289 C10.18328339 17.14039322 10.1888324 18.05007355 10.19454956 18.98731995 C10.20632434 21.9829742 10.18209428 24.97710865 10.15625 27.97265625 C10.15453839 30.05960521 10.15460509 32.14655633 10.15637207 34.23350525 C10.15472011 38.6022505 10.1360429 42.97048182 10.10449219 47.33911133 C10.06479069 52.93692085 10.06045064 58.53405824 10.06795502 64.13198185 C10.07102526 68.43942922 10.0589026 72.74672567 10.04182434 77.05413628 C10.03479734 79.1181894 10.03166944 81.18225963 10.03251648 83.24632454 C10.03071753 86.13075782 10.00932781 89.01438744 9.98242188 91.89868164 C9.98535248 92.75024841 9.98828308 93.60181519 9.99130249 94.47918701 C9.92441328 99.12988617 9.60001269 102.24041123 6.5625 106 C2.51764343 108.69657104 -0.69057196 108.5422677 -5.4375 108 C-9.33711559 106.34058911 -10.83959758 104.85455634 -12.4375 101 C-12.69476891 99.05374241 -12.69476891 99.05374241 -12.70492554 96.98402405 C-12.71345551 96.19482071 -12.72198547 95.40561737 -12.73077393 94.59249878 C-12.72986755 93.73576569 -12.72896118 92.87903259 -12.72802734 91.99633789 C-12.73474457 91.08694962 -12.74146179 90.17756134 -12.74838257 89.24061584 C-12.7673801 86.23457374 -12.77128749 83.22875465 -12.7734375 80.22265625 C-12.77986359 78.13284717 -12.78659181 76.04303899 -12.79360962 73.95323181 C-12.80558634 69.57272251 -12.80928997 65.1922921 -12.80810547 60.81176758 C-12.80790212 55.19818416 -12.83521936 49.58510608 -12.86964989 43.97164249 C-12.8918833 39.6556516 -12.89594412 35.33978307 -12.89488602 31.02374077 C-12.89724676 28.9540781 -12.90609682 26.8844123 -12.92155075 24.81480598 C-12.94114096 21.92052884 -12.93540027 19.02735139 -12.92333984 16.13305664 C-12.93457886 15.27834778 -12.94581787 14.42363892 -12.95739746 13.54302979 C-12.91456995 9.49958307 -12.75678094 7.50038017 -10.53042603 4.01121521 C-7.14916996 0.7619682 -4.69928974 -0.39092878 0 0 Z " fill="#ffffff" transform="translate(65.4375,74)"/>
<path d="M0 0 C3.4203867 1.89212881 4.65727714 3.14863826 6.11401367 6.76733398 C7.0101155 10.03690807 7.23960843 12.71733451 7.23828125 16.09765625 C7.25439453 17.22880859 7.27050781 18.35996094 7.28710938 19.52539062 C7.3040641 21.88731468 7.30923403 24.24935216 7.30273438 26.61132812 C7.32863871 33.36278523 7.32863871 33.36278523 10.29296875 39.24609375 C14.50482325 41.97498649 17.93455255 42.12210671 22.90234375 42.17578125 C24.03994141 42.19962891 25.17753906 42.22347656 26.34960938 42.24804688 C28.73744941 42.29094221 31.12552672 42.32223261 33.51367188 42.34179688 C34.65255859 42.36951172 35.79144531 42.39722656 36.96484375 42.42578125 C38.0024585 42.44036377 39.04007324 42.45494629 40.10913086 42.4699707 C43.69669753 43.12773671 45.38865018 44.50359508 48 47 C49.74348951 50.48697902 49.58082725 54.19590063 49 58 C47.0862694 61.57623788 44.90713292 63.69762236 41 65 C36.31681724 65.26533613 31.62737125 65.23158126 26.9375 65.25 C25.65166016 65.270625 24.36582031 65.29125 23.04101562 65.3125 C10.37454486 65.36422627 1.40434218 63.30360283 -7.72265625 54.30078125 C-16.28471375 44.93931789 -16.20254487 34.63665056 -16.25 22.5 C-16.270625 21.18128906 -16.29125 19.86257812 -16.3125 18.50390625 C-16.31765625 17.23417969 -16.3228125 15.96445313 -16.328125 14.65625 C-16.3374707 13.49931641 -16.34681641 12.34238281 -16.35644531 11.15039062 C-15.87323817 6.87963376 -14.20037306 4.33887765 -11.375 1.1875 C-7.63911821 -0.68044089 -4.08767886 -0.64964896 0 0 Z " fill="#ffffff" transform="translate(26,160)"/>
<path d="M0 0 C1.09723137 -0.00786278 1.09723137 -0.00786278 2.21662903 -0.0158844 C3.74849181 -0.02225646 5.28040385 -0.02103071 6.81225586 -0.01245117 C9.14980661 -0.00388692 11.48495205 -0.03285125 13.82226562 -0.06445312 C15.31900969 -0.06606422 16.81575805 -0.06548937 18.3125 -0.0625 C19.35170845 -0.07935097 19.35170845 -0.07935097 20.41191101 -0.09654236 C25.18805548 -0.02808653 27.60054146 1.06216701 30.95703125 4.43359375 C32.70052076 7.92057277 32.5378585 11.62949438 31.95703125 15.43359375 C30.04330065 19.00983163 27.86416417 21.13121611 23.95703125 22.43359375 C21.95130849 22.54905418 19.94237318 22.61197259 17.93359375 22.64453125 C16.74765625 22.67289063 15.56171875 22.70125 14.33984375 22.73046875 C11.84259519 22.7823866 9.34517665 22.82670668 6.84765625 22.86328125 C5.06488281 22.9096875 5.06488281 22.9096875 3.24609375 22.95703125 C2.16021973 22.97685059 1.0743457 22.99666992 -0.04443359 23.01708984 C-3.40688765 23.48414298 -5.3228893 24.43348131 -8.04296875 26.43359375 C-9.36304452 29.07374529 -9.22114466 31.15184309 -9.2890625 34.10546875 C-9.32193359 35.245 -9.35480469 36.38453125 -9.38867188 37.55859375 C-9.44947193 39.95954914 -9.50680993 42.3605949 -9.56054688 44.76171875 C-9.59470703 45.90640625 -9.62886719 47.05109375 -9.6640625 48.23046875 C-9.68911865 49.27557617 -9.7141748 50.32068359 -9.73999023 51.39746094 C-10.16810977 55.68762575 -11.18228675 59.20877706 -13.66796875 62.74609375 C-16.95559828 65.08204105 -20.09324284 65.61624004 -24.04296875 65.43359375 C-27.9722606 64.17325486 -29.54839305 63.25342829 -31.68603516 59.70996094 C-33.13018165 56.22301492 -33.42962318 53.82796675 -33.44140625 50.07421875 C-33.44527344 48.87539062 -33.44914062 47.6765625 -33.453125 46.44140625 C-33.44152344 45.20132813 -33.42992187 43.96125 -33.41796875 42.68359375 C-33.42957031 41.45898438 -33.44117188 40.234375 -33.453125 38.97265625 C-33.41667411 27.62428028 -31.51577364 18.23902073 -24.04296875 9.43359375 C-17.15709308 2.90412986 -9.4574731 -0.0404287 0 0 Z " fill="#ffffff" transform="translate(43.04296875,31.56640625)"/>
<path d="M0 0 C2.82424288 2.19022918 4.41508603 3.83017207 6 7 C6.2367387 11.439568 6.22848641 15.88323141 6.24023438 20.32836914 C6.24985731 22.52985628 6.28083781 24.73037601 6.3125 26.93164062 C6.39686234 37.90569107 5.26302491 46.26091719 -1.9140625 54.921875 C-11.82250334 64.79320557 -23.37324527 65.36174825 -36.625 65.375 C-37.92179687 65.39949219 -39.21859375 65.42398438 -40.5546875 65.44921875 C-52.30491302 65.48548488 -52.30491302 65.48548488 -57 61 C-59.58644464 57.5905957 -59.36503115 54.1613551 -59 50 C-57.34860695 46.4613006 -56.28394771 45.18929847 -53 43 C-50.38378906 42.71289062 -50.38378906 42.71289062 -47.265625 42.65625 C-46.13382813 42.62660156 -45.00203125 42.59695312 -43.8359375 42.56640625 C-42.65257812 42.54449219 -41.46921875 42.52257812 -40.25 42.5 C-29.87532689 42.60937886 -29.87532689 42.60937886 -20 40 C-17.09536524 36.17404872 -16.62392114 33.30759674 -16.59375 28.5625 C-16.57183594 27.33789062 -16.54992187 26.11328125 -16.52734375 24.8515625 C-16.51832031 23.58054688 -16.50929687 22.30953125 -16.5 21 C-16.48210269 18.4790365 -16.45135589 15.95812348 -16.40625 13.4375 C-16.39916016 12.32246094 -16.39207031 11.20742187 -16.38476562 10.05859375 C-15.95154062 6.61478486 -15.06773484 4.76507903 -13 2 C-8.7741215 -0.81725233 -4.96375312 -0.79958384 0 0 Z " fill="#ffffff" transform="translate(240,160)"/>
<path d="M0 0 C0.74415665 -0.01140015 1.48831329 -0.02280029 2.25502014 -0.0345459 C3.83442518 -0.05343981 5.41390896 -0.06651153 6.9934082 -0.07421875 C9.37143297 -0.09343705 11.74584866 -0.15537785 14.12304688 -0.21875 C24.93880268 -0.37003916 33.54174784 1.1008556 41.93334961 8.60742188 C50.29208633 17.00518538 52.04321743 26.29536815 52.01953125 37.77148438 C52.00696289 38.86722778 52.00696289 38.86722778 51.99414062 39.98510742 C51.97252222 42.23268408 51.99411661 44.47712429 52.01953125 46.72460938 C52.0168906 48.16667365 52.01177107 49.608736 52.00390625 51.05078125 C51.99939453 52.34346924 51.99488281 53.63615723 51.99023438 54.96801758 C51.39196761 58.94225853 50.25740536 60.57028186 47.47265625 63.40625 C44.20331347 65.69478994 41.40284105 65.87787218 37.47265625 65.40625 C33.81483445 63.36631092 31.80319451 61.90205738 29.47265625 58.40625 C29.20141602 55.57470703 29.20141602 55.57470703 29.1640625 52.1640625 C29.13892578 50.93300781 29.11378906 49.70195313 29.08789062 48.43359375 C29.05284061 45.83989232 29.02156744 43.24613699 28.99414062 40.65234375 C28.96771484 39.41871094 28.94128906 38.18507812 28.9140625 36.9140625 C28.90060791 35.78629395 28.88715332 34.65852539 28.87329102 33.49658203 C28.42550487 30.04254366 27.54836025 28.18016477 25.47265625 25.40625 C21.94821644 23.05662346 20.43800493 23.15503956 16.265625 23.1328125 C15.03908203 23.1121875 13.81253906 23.0915625 12.54882812 23.0703125 C9.96816478 23.04438921 7.38741296 23.02608936 4.80664062 23.015625 C-6.87373417 22.79535601 -6.87373417 22.79535601 -11.52734375 18.40625 C-14.11378839 14.9968457 -13.8923749 11.5676051 -13.52734375 7.40625 C-10.48394806 0.8846878 -6.75058684 0.08053623 0 0 Z " fill="#ffffff" transform="translate(194.52734375,31.59375)"/>
<path d="M0 0 C2.86704129 2.15028097 4.58386686 3.59900189 5.61450195 7.06884766 C6.16642992 11.26545767 6.16269801 15.41977696 6.16796875 19.6484375 C6.17129715 20.57919098 6.17462555 21.50994446 6.17805481 22.46890259 C6.18310739 24.43401599 6.18546365 26.39913793 6.18530273 28.36425781 C6.18748728 31.35756692 6.20565545 34.35050612 6.22460938 37.34375 C6.2275441 39.25781125 6.22952837 41.17187423 6.23046875 43.0859375 C6.23765427 43.97469574 6.24483978 44.86345398 6.25224304 45.77914429 C6.22984482 51.9252023 6.0679127 57.55610318 1.9375 62.4375 C-2.12306557 64.5973753 -5.49600012 64.93404567 -10 64 C-13.56760738 62.05672945 -15.69295606 59.92113181 -17 56 C-17.10654356 54.42135475 -17.15858593 52.83872112 -17.17700195 51.2565918 C-17.18983719 50.29516769 -17.20267242 49.33374359 -17.21589661 48.34318542 C-17.22328354 47.30567642 -17.23067047 46.26816742 -17.23828125 45.19921875 C-17.246353 44.13008743 -17.25442474 43.06095612 -17.26274109 41.95942688 C-17.27657591 39.69570536 -17.28730076 37.43196303 -17.29516602 35.16821289 C-17.31238124 31.71134826 -17.35627416 28.25543939 -17.40039062 24.79882812 C-17.41051753 22.59896536 -17.41903364 20.39909447 -17.42578125 18.19921875 C-17.44328934 17.16778244 -17.46079742 16.13634613 -17.47883606 15.07365417 C-17.46071165 9.05887734 -17.02121988 5.57654904 -13 1 C-8.88044983 -1.87960635 -4.67155611 -1.29071515 0 0 Z " fill="#ffffff" transform="translate(198,75)"/>
<path d="M0 0 C3.52787301 1.95657197 5.70285021 4.10855063 7 8 C7.11162462 9.60914977 7.16885012 11.22236719 7.19287109 12.83520508 C7.21696548 14.30737236 7.21696548 14.30737236 7.24154663 15.8092804 C7.2860835 20.29252358 7.3270531 24.77562051 7.35009766 29.2590332 C7.36666228 31.62274009 7.39395865 33.98639679 7.43212891 36.34985352 C7.48691818 39.76084331 7.5087748 43.17066058 7.5234375 46.58203125 C7.54610687 47.63534134 7.56877625 48.68865143 7.59213257 49.77388 C7.56856959 57.96626128 7.56856959 57.96626128 4.59228516 61.65112305 C0.72279937 65.15727513 -1.67133423 65.33376542 -6.73828125 65.29296875 C-10.0542278 64.86344199 -11.74987627 63.39075646 -14 61 C-15.24641887 58.50716226 -15.15396235 56.77659187 -15.19287109 53.98706055 C-15.20893402 52.94225021 -15.22499695 51.89743988 -15.24154663 50.82096863 C-15.28593806 46.04056394 -15.3270588 41.26029884 -15.35009766 36.47973633 C-15.36666456 33.95685608 -15.39396384 31.43402291 -15.43212891 28.91137695 C-15.48683189 25.2779093 -15.50876249 21.64554247 -15.5234375 18.01171875 C-15.54610687 16.88448898 -15.56877625 15.75725922 -15.59213257 14.59587097 C-15.57093883 6.75602212 -15.57093883 6.75602212 -12.59228516 2.81176758 C-8.46020524 -0.07617413 -5.010109 -0.84586256 0 0 Z " fill="#ffffff" transform="translate(111,117)"/>
<path d="M0 0 C2.87029869 1.79393668 4.49131638 2.98263276 6 6 C6.64507919 11.20671061 6.9173523 14.81709835 3.625 19.0625 C-0.50335056 22.10961589 -2.83821743 22.34995136 -8 22 C-11.04739688 20.68407862 -12.6866919 19.35508251 -14.875 16.875 C-16.50942687 12.69813134 -16.36425243 9.26232539 -15 5 C-10.79155697 -0.15534271 -6.53779062 -1.33645444 0 0 Z " fill="#ffffff" transform="translate(197,160)"/>
<path d="M0 0 C3.81357279 3.23324649 5.83136779 5.24622504 6.3125 10.25 C5.93154145 14.82150264 5.16795514 16.67751046 2 20 C-2.40867144 21.97428171 -5.77890952 22.40703016 -10.375 20.875 C-14.67045455 17.80681818 -14.67045455 17.80681818 -16 15 C-16.6925969 10.4425414 -16.63300955 7.10190551 -14.3125 3.0625 C-9.6480254 -1.09770707 -6.0606283 -1.62338258 0 0 Z " fill="#ffffff" transform="translate(112,75)"/>
</svg>
