<?xml version="1.0" encoding="UTF-8"?>
<svg version="1.1" xmlns="http://www.w3.org/2000/svg" width="256" height="256">
<path d="M0 0 C0.825 -0.01289062 1.65 -0.02578125 2.5 -0.0390625 C5.25204413 0.69194922 6.96544442 1.70619781 8.9317131 3.7739563 C11.37567988 8.00867015 10.68732467 13.30340578 10.64697266 18.046875 C10.66011505 19.93786926 10.66011505 19.93786926 10.67352295 21.86706543 C10.69628144 25.31765365 10.68749512 28.76749287 10.67162752 32.21809387 C10.65895022 35.83259061 10.67071369 39.44702412 10.67855835 43.06152344 C10.68764966 49.13097626 10.67568091 55.20012467 10.65185547 61.26953125 C10.62464477 68.28220388 10.63345933 75.29414964 10.6609875 82.30680466 C10.68369264 88.33247465 10.68687191 94.35792608 10.67379415 100.38362503 C10.6660072 103.98043987 10.66493673 107.57691328 10.68147659 111.17370605 C10.69863025 115.18394877 10.67484339 119.19294261 10.64697266 123.203125 C10.65709381 124.3928894 10.66721497 125.58265381 10.67764282 126.80847168 C10.56220639 135.76139181 10.56220639 135.76139181 7.61581421 138.85986328 C4.79044699 140.76640519 3.37741849 141.30277216 0 141.25 C-0.825 141.26289063 -1.65 141.27578125 -2.5 141.2890625 C-5.25204413 140.55805078 -6.96544442 139.54380219 -8.9317131 137.4760437 C-11.37567988 133.24132985 -10.68732467 127.94659422 -10.64697266 123.203125 C-10.65573425 121.94246216 -10.66449585 120.68179932 -10.67352295 119.38293457 C-10.69628144 115.93234635 -10.68749512 112.48250713 -10.67162752 109.03190613 C-10.65895022 105.41740939 -10.67071369 101.80297588 -10.67855835 98.18847656 C-10.68764966 92.11902374 -10.67568091 86.04987533 -10.65185547 79.98046875 C-10.62464477 72.96779612 -10.63345933 65.95585036 -10.6609875 58.94319534 C-10.68369264 52.91752535 -10.68687191 46.89207392 -10.67379415 40.86637497 C-10.6660072 37.26956013 -10.66493673 33.67308672 -10.68147659 30.07629395 C-10.69863025 26.06605123 -10.67484339 22.05705739 -10.64697266 18.046875 C-10.65709381 16.8571106 -10.66721497 15.66734619 -10.67764282 14.44152832 C-10.56220639 5.48860819 -10.56220639 5.48860819 -7.61581421 2.39013672 C-4.79044699 0.48359481 -3.37741849 -0.05277216 0 0 Z " fill="#ffffff" transform="translate(208,57.375)"/>
<path d="M0 0 C0.825 -0.01289062 1.65 -0.02578125 2.5 -0.0390625 C5.25204413 0.69194922 6.96544442 1.70619781 8.9317131 3.7739563 C11.37567988 8.00867015 10.68732467 13.30340578 10.64697266 18.046875 C10.66011505 19.93786926 10.66011505 19.93786926 10.67352295 21.86706543 C10.69628144 25.31765365 10.68749512 28.76749287 10.67162752 32.21809387 C10.65895022 35.83259061 10.67071369 39.44702412 10.67855835 43.06152344 C10.68764966 49.13097626 10.67568091 55.20012467 10.65185547 61.26953125 C10.62464477 68.28220388 10.63345933 75.29414964 10.6609875 82.30680466 C10.68369264 88.33247465 10.68687191 94.35792608 10.67379415 100.38362503 C10.6660072 103.98043987 10.66493673 107.57691328 10.68147659 111.17370605 C10.69863025 115.18394877 10.67484339 119.19294261 10.64697266 123.203125 C10.65709381 124.3928894 10.66721497 125.58265381 10.67764282 126.80847168 C10.56220639 135.76139181 10.56220639 135.76139181 7.61581421 138.85986328 C4.79044699 140.76640519 3.37741849 141.30277216 0 141.25 C-0.825 141.26289063 -1.65 141.27578125 -2.5 141.2890625 C-5.25204413 140.55805078 -6.96544442 139.54380219 -8.9317131 137.4760437 C-11.37567988 133.24132985 -10.68732467 127.94659422 -10.64697266 123.203125 C-10.65573425 121.94246216 -10.66449585 120.68179932 -10.67352295 119.38293457 C-10.69628144 115.93234635 -10.68749512 112.48250713 -10.67162752 109.03190613 C-10.65895022 105.41740939 -10.67071369 101.80297588 -10.67855835 98.18847656 C-10.68764966 92.11902374 -10.67568091 86.04987533 -10.65185547 79.98046875 C-10.62464477 72.96779612 -10.63345933 65.95585036 -10.6609875 58.94319534 C-10.68369264 52.91752535 -10.68687191 46.89207392 -10.67379415 40.86637497 C-10.6660072 37.26956013 -10.66493673 33.67308672 -10.68147659 30.07629395 C-10.69863025 26.06605123 -10.67484339 22.05705739 -10.64697266 18.046875 C-10.65709381 16.8571106 -10.66721497 15.66734619 -10.67764282 14.44152832 C-10.56220639 5.48860819 -10.56220639 5.48860819 -7.61581421 2.39013672 C-4.79044699 0.48359481 -3.37741849 -0.05277216 0 0 Z " fill="#ffffff" transform="translate(128,57.375)"/>
<path d="M0 0 C0.825 -0.01289062 1.65 -0.02578125 2.5 -0.0390625 C5.25204413 0.69194922 6.96544442 1.70619781 8.9317131 3.7739563 C11.37567988 8.00867015 10.68732467 13.30340578 10.64697266 18.046875 C10.66011505 19.93786926 10.66011505 19.93786926 10.67352295 21.86706543 C10.69628144 25.31765365 10.68749512 28.76749287 10.67162752 32.21809387 C10.65895022 35.83259061 10.67071369 39.44702412 10.67855835 43.06152344 C10.68764966 49.13097626 10.67568091 55.20012467 10.65185547 61.26953125 C10.62464477 68.28220388 10.63345933 75.29414964 10.6609875 82.30680466 C10.68369264 88.33247465 10.68687191 94.35792608 10.67379415 100.38362503 C10.6660072 103.98043987 10.66493673 107.57691328 10.68147659 111.17370605 C10.69863025 115.18394877 10.67484339 119.19294261 10.64697266 123.203125 C10.65709381 124.3928894 10.66721497 125.58265381 10.67764282 126.80847168 C10.56220639 135.76139181 10.56220639 135.76139181 7.61581421 138.85986328 C4.79044699 140.76640519 3.37741849 141.30277216 0 141.25 C-0.825 141.26289063 -1.65 141.27578125 -2.5 141.2890625 C-5.25204413 140.55805078 -6.96544442 139.54380219 -8.9317131 137.4760437 C-11.37567988 133.24132985 -10.68732467 127.94659422 -10.64697266 123.203125 C-10.65573425 121.94246216 -10.66449585 120.68179932 -10.67352295 119.38293457 C-10.69628144 115.93234635 -10.68749512 112.48250713 -10.67162752 109.03190613 C-10.65895022 105.41740939 -10.67071369 101.80297588 -10.67855835 98.18847656 C-10.68764966 92.11902374 -10.67568091 86.04987533 -10.65185547 79.98046875 C-10.62464477 72.96779612 -10.63345933 65.95585036 -10.6609875 58.94319534 C-10.68369264 52.91752535 -10.68687191 46.89207392 -10.67379415 40.86637497 C-10.6660072 37.26956013 -10.66493673 33.67308672 -10.68147659 30.07629395 C-10.69863025 26.06605123 -10.67484339 22.05705739 -10.64697266 18.046875 C-10.65709381 16.8571106 -10.66721497 15.66734619 -10.67764282 14.44152832 C-10.56220639 5.48860819 -10.56220639 5.48860819 -7.61581421 2.39013672 C-4.79044699 0.48359481 -3.37741849 -0.05277216 0 0 Z " fill="#ffffff" transform="translate(48,57.375)"/>
<path d="M0 0 C0.825 -0.01289062 1.65 -0.02578125 2.5 -0.0390625 C6.21521731 0.9477921 7.62070357 2.62579216 10 5.625 C10.72238332 8.54447356 10.68414638 11.378909 10.64697266 14.375 C10.66011505 15.68078003 10.66011505 15.68078003 10.67352295 17.01293945 C10.69548995 19.88413665 10.68097399 22.75378776 10.6640625 25.625 C10.66743141 27.62370092 10.67228466 29.62239984 10.67855835 31.62109375 C10.68592602 35.80749032 10.67522741 39.99335304 10.65185547 44.1796875 C10.62336794 49.54348239 10.63977245 54.90602639 10.66971779 60.26977539 C10.6877935 64.39625458 10.68203144 68.52243763 10.66907883 72.64892578 C10.66574558 74.62646635 10.66982903 76.60403389 10.68147659 78.58154297 C10.69418974 81.34675203 10.67480238 84.10994125 10.64697266 86.875 C10.65709381 87.69073486 10.66721497 88.50646973 10.67764282 89.34692383 C10.59834174 93.60425888 10.35823887 95.17342415 7.61581421 98.63037109 C4.77429939 100.79710281 3.5237761 101.305059 0 101.25 C-1.2375 101.26933594 -1.2375 101.26933594 -2.5 101.2890625 C-6.21521731 100.3022079 -7.62070357 98.62420784 -10 95.625 C-10.72238332 92.70552644 -10.68414638 89.871091 -10.64697266 86.875 C-10.65573425 86.00447998 -10.66449585 85.13395996 -10.67352295 84.23706055 C-10.69548995 81.36586335 -10.68097399 78.49621224 -10.6640625 75.625 C-10.66743141 73.62629908 -10.67228466 71.62760016 -10.67855835 69.62890625 C-10.68592602 65.44250968 -10.67522741 61.25664696 -10.65185547 57.0703125 C-10.62336794 51.70651761 -10.63977245 46.34397361 -10.66971779 40.98022461 C-10.6877935 36.85374542 -10.68203144 32.72756237 -10.66907883 28.60107422 C-10.66574558 26.62353365 -10.66982903 24.64596611 -10.68147659 22.66845703 C-10.69418974 19.90324797 -10.67480238 17.14005875 -10.64697266 14.375 C-10.66215439 13.15139771 -10.66215439 13.15139771 -10.67764282 11.90307617 C-10.59834174 7.64574112 -10.35823887 6.07657585 -7.61581421 2.61962891 C-4.77429939 0.45289719 -3.5237761 -0.055059 0 0 Z " fill="#ffffff" transform="translate(168,57.375)"/>
<path d="M0 0 C0.825 -0.01289062 1.65 -0.02578125 2.5 -0.0390625 C6.21521731 0.9477921 7.62070357 2.62579216 10 5.625 C10.72238332 8.54447356 10.68414638 11.378909 10.64697266 14.375 C10.66011505 15.68078003 10.66011505 15.68078003 10.67352295 17.01293945 C10.69548995 19.88413665 10.68097399 22.75378776 10.6640625 25.625 C10.66743141 27.62370092 10.67228466 29.62239984 10.67855835 31.62109375 C10.68592602 35.80749032 10.67522741 39.99335304 10.65185547 44.1796875 C10.62336794 49.54348239 10.63977245 54.90602639 10.66971779 60.26977539 C10.6877935 64.39625458 10.68203144 68.52243763 10.66907883 72.64892578 C10.66574558 74.62646635 10.66982903 76.60403389 10.68147659 78.58154297 C10.69418974 81.34675203 10.67480238 84.10994125 10.64697266 86.875 C10.65709381 87.69073486 10.66721497 88.50646973 10.67764282 89.34692383 C10.59834174 93.60425888 10.35823887 95.17342415 7.61581421 98.63037109 C4.77429939 100.79710281 3.5237761 101.305059 0 101.25 C-1.2375 101.26933594 -1.2375 101.26933594 -2.5 101.2890625 C-6.21521731 100.3022079 -7.62070357 98.62420784 -10 95.625 C-10.72238332 92.70552644 -10.68414638 89.871091 -10.64697266 86.875 C-10.65573425 86.00447998 -10.66449585 85.13395996 -10.67352295 84.23706055 C-10.69548995 81.36586335 -10.68097399 78.49621224 -10.6640625 75.625 C-10.66743141 73.62629908 -10.67228466 71.62760016 -10.67855835 69.62890625 C-10.68592602 65.44250968 -10.67522741 61.25664696 -10.65185547 57.0703125 C-10.62336794 51.70651761 -10.63977245 46.34397361 -10.66971779 40.98022461 C-10.6877935 36.85374542 -10.68203144 32.72756237 -10.66907883 28.60107422 C-10.66574558 26.62353365 -10.66982903 24.64596611 -10.68147659 22.66845703 C-10.69418974 19.90324797 -10.67480238 17.14005875 -10.64697266 14.375 C-10.66215439 13.15139771 -10.66215439 13.15139771 -10.67764282 11.90307617 C-10.59834174 7.64574112 -10.35823887 6.07657585 -7.61581421 2.61962891 C-4.77429939 0.45289719 -3.5237761 -0.055059 0 0 Z " fill="#ffffff" transform="translate(88,57.375)"/>
<path d="M0 0 C0.825 -0.01289063 1.65 -0.02578125 2.5 -0.0390625 C6.16093359 0.93337299 7.61688357 2.71647207 10 5.625 C10.6628418 9.03149414 10.6628418 9.03149414 10.69921875 12.91015625 C10.70637405 13.60709091 10.71352936 14.30402557 10.72090149 15.02207947 C10.72866289 16.4954196 10.72369896 17.96887516 10.70678711 19.44213867 C10.68774997 21.65839933 10.72674868 23.868208 10.77148438 26.08398438 C10.83103857 36.19627275 9.15137023 44.54483384 2.37646484 52.54125977 C0.67032781 54.14110234 -1.01688504 55.38876239 -3 56.625 C-3.57419678 56.98779053 -4.14839355 57.35058105 -4.73999023 57.72436523 C-11.69328479 61.37962685 -18.84659148 61.26775614 -26.50341797 61.20141602 C-28.76025858 61.18743646 -31.0130322 61.22183921 -33.26953125 61.25976562 C-34.71614684 61.26071606 -36.16276759 61.25886209 -37.609375 61.25390625 C-38.90842773 61.25463135 -40.20748047 61.25535645 -41.54589844 61.25610352 C-45.8456386 60.47049224 -47.31590414 59.00265009 -50 55.625 C-50.6640625 53.125 -50.6640625 53.125 -50.625 50.625 C-50.63789063 49.8 -50.65078125 48.975 -50.6640625 48.125 C-49.6243496 44.21078671 -48.35697878 42.94001797 -45 40.625 C-40.87757426 39.91544586 -36.80029346 39.92547439 -32.625 39.9375 C-22.52341665 40.25695438 -22.52341665 40.25695438 -13 37.625 C-9.57638586 30.77777173 -10.67571255 22.09260251 -10.69726562 14.609375 C-10.54572395 6.41634751 -10.54572395 6.41634751 -7.76953125 2.390625 C-4.86473247 0.53876456 -3.40898135 -0.05326533 0 0 Z " fill="#ffffff" transform="translate(246,177.375)"/>
<path d="M0 0 C0.825 -0.01289063 1.65 -0.02578125 2.5 -0.0390625 C6.41532014 1.00094441 7.68706941 2.26516399 10 5.625 C10.68453481 9.74821691 10.65383875 13.82799373 10.625 18 C10.33782709 28.29909662 10.33782709 28.29909662 14 37.625 C20.11200456 41.23257342 29.06437847 39.94753477 35.96679688 39.92773438 C44.20807191 40.07953445 44.20807191 40.07953445 48.23828125 42.85546875 C50.08574602 45.75979806 50.67822687 47.2184804 50.625 50.625 C50.63789062 51.45 50.65078125 52.275 50.6640625 53.125 C49.69162701 56.78593359 47.90852793 58.24188357 45 60.625 C41.59350586 61.2878418 41.59350586 61.2878418 37.71484375 61.32421875 C37.01790909 61.33137405 36.32097443 61.33852936 35.60292053 61.34590149 C34.1295804 61.35366289 32.65612484 61.34869896 31.18286133 61.33178711 C28.96660067 61.31274997 26.756792 61.35174868 24.54101562 61.39648438 C14.42872725 61.45603857 6.08016616 59.77637023 -1.91625977 53.00146484 C-3.51610234 51.29532781 -4.76376239 49.60811496 -6 47.625 C-6.54418579 46.76370483 -6.54418579 46.76370483 -7.09936523 45.88500977 C-10.75462685 38.93171521 -10.64275614 31.77840852 -10.57641602 24.12158203 C-10.56243646 21.86474142 -10.59683921 19.6119678 -10.63476562 17.35546875 C-10.63571606 15.90885316 -10.63386209 14.46223241 -10.62890625 13.015625 C-10.62963135 11.71657227 -10.63035645 10.41751953 -10.63110352 9.07910156 C-9.56154705 3.22529699 -5.98853605 -0.09357088 0 0 Z " fill="#ffffff" transform="translate(10,177.375)"/>
<path d="M0 0 C1.04540199 -0.01073296 1.04540199 -0.01073296 2.11192322 -0.02168274 C3.58526335 -0.02944414 5.05871891 -0.02448021 6.53198242 -0.00756836 C8.74824308 0.01146878 10.95805175 -0.02752993 13.17382812 -0.07226562 C23.2861165 -0.13181982 31.63467759 1.54784852 39.63110352 8.32275391 C41.23094609 10.02889094 42.47860614 11.71610379 43.71484375 13.69921875 C44.07763428 14.27341553 44.4404248 14.8476123 44.81420898 15.43920898 C48.4694706 22.39250354 48.35759989 29.54581023 48.29125977 37.20263672 C48.27728021 39.45947733 48.31168296 41.71225095 48.34960938 43.96875 C48.35055981 45.41536559 48.34870584 46.86198634 48.34375 48.30859375 C48.3444751 49.60764648 48.3452002 50.90669922 48.34594727 52.24511719 C47.56033599 56.54485735 46.09249384 58.01512289 42.71484375 60.69921875 C40.21484375 61.36328125 40.21484375 61.36328125 37.71484375 61.32421875 C36.88984375 61.33710937 36.06484375 61.35 35.21484375 61.36328125 C31.29952361 60.32327434 30.02777434 59.05905476 27.71484375 55.69921875 C27.03030894 51.57600184 27.061005 47.49622502 27.08984375 43.32421875 C27.37701666 33.02512213 27.37701666 33.02512213 23.71484375 23.69921875 C17.60283919 20.09164533 8.65046528 21.37668398 1.74804688 21.39648438 C-6.49322816 21.2446843 -6.49322816 21.2446843 -10.5234375 18.46875 C-12.37090227 15.56442069 -12.96338312 14.10573835 -12.91015625 10.69921875 C-12.92304688 9.87421875 -12.9359375 9.04921875 -12.94921875 8.19921875 C-11.16645238 1.48762771 -6.3292663 0.05936053 0 0 Z " fill="#ffffff" transform="translate(208.28515625,17.30078125)"/>
<path d="M0 0 C2.25684061 0.01397956 4.50961423 -0.0204232 6.76611328 -0.05834961 C8.21272887 -0.05930004 9.65934962 -0.05744607 11.10595703 -0.05249023 C13.05453613 -0.05357788 13.05453613 -0.05357788 15.04248047 -0.0546875 C19.34222063 0.73092378 20.81248617 2.19876592 23.49658203 5.57641602 C24.16064453 8.07641602 24.16064453 8.07641602 24.12158203 10.57641602 C24.13447266 11.40141602 24.14736328 12.22641602 24.16064453 13.07641602 C23.12063762 16.99173615 21.85641804 18.26348543 18.49658203 20.57641602 C14.37336512 21.26095083 10.2935883 21.23025477 6.12158203 21.20141602 C-4.17751458 20.91424311 -4.17751458 20.91424311 -13.50341797 24.57641602 C-17.11099139 30.68842057 -15.82595274 39.64079449 -15.80615234 46.54321289 C-15.95795242 54.78448792 -15.95795242 54.78448792 -18.73388672 58.81469727 C-21.63821603 60.66216203 -23.09689837 61.25464288 -26.50341797 61.20141602 C-27.32841797 61.21430664 -28.15341797 61.22719727 -29.00341797 61.24047852 C-32.66435156 60.26804303 -34.12030153 58.48494395 -36.50341797 55.57641602 C-37.16625977 52.16992188 -37.16625977 52.16992188 -37.20263672 48.29125977 C-37.20979202 47.5943251 -37.21694733 46.89739044 -37.22431946 46.17933655 C-37.23208086 44.70599641 -37.22711693 43.23254086 -37.21020508 41.75927734 C-37.19116794 39.54301668 -37.23016665 37.33320802 -37.27490234 35.11743164 C-37.33445654 25.00514327 -35.6547882 16.65658217 -28.87988281 8.66015625 C-27.17374578 7.06031367 -25.48653293 5.81265363 -23.50341797 4.57641602 C-22.92922119 4.21362549 -22.35502441 3.85083496 -21.76342773 3.47705078 C-14.81013318 -0.17821083 -7.65682649 -0.06634013 0 0 Z " fill="#ffffff" transform="translate(36.50341796875,17.423583984375)"/>
<path d="M0 0 C3.125 1.875 3.125 1.875 5 5 C5.98876625 10.02622846 5.7769173 13.70513784 3.125 18.125 C-1.29486216 20.7769173 -4.97377154 20.98876625 -10 20 C-13.125 18.125 -13.125 18.125 -15 15 C-15.98876625 9.97377154 -15.7769173 6.29486216 -13.125 1.875 C-8.70513784 -0.7769173 -5.02622846 -0.98876625 0 0 Z " fill="#ffffff" transform="translate(173,178)"/>
<path d="M0 0 C3.125 1.875 3.125 1.875 5 5 C5.98876625 10.02622846 5.7769173 13.70513784 3.125 18.125 C-1.29486216 20.7769173 -4.97377154 20.98876625 -10 20 C-13.125 18.125 -13.125 18.125 -15 15 C-15.98876625 9.97377154 -15.7769173 6.29486216 -13.125 1.875 C-8.70513784 -0.7769173 -5.02622846 -0.98876625 0 0 Z " fill="#ffffff" transform="translate(93,178)"/>
</svg>
