<?xml version="1.0" encoding="UTF-8"?>
<svg version="1.1" xmlns="http://www.w3.org/2000/svg" width="256" height="256">
<path d="M0 0 C0.77450255 -0.00453111 1.54900509 -0.00906223 2.34697741 -0.01373065 C4.93854775 -0.02637656 7.52990799 -0.02475416 10.12150574 -0.02310181 C11.98116323 -0.02908696 13.84081823 -0.03589248 15.70046997 -0.04345703 C20.75015006 -0.0611261 25.79976237 -0.06581281 30.84947038 -0.0670886 C34.00528242 -0.06851031 37.16107723 -0.07278028 40.31688499 -0.07808304 C51.32924366 -0.09658668 62.34155391 -0.10475328 73.35392761 -0.10317993 C83.61441715 -0.10197861 93.87469631 -0.1230783 104.13513261 -0.15466726 C112.94803443 -0.18083149 121.76086754 -0.19154716 130.5738079 -0.19026911 C135.83567588 -0.1897595 141.09735692 -0.19544229 146.35918617 -0.21662521 C151.30949381 -0.23600985 156.25943622 -0.23613043 161.20975685 -0.22159195 C163.02375828 -0.219503 164.83778258 -0.22420986 166.65174484 -0.23631287 C169.13422338 -0.25179982 171.61544795 -0.24243529 174.09790039 -0.22705078 C175.16675066 -0.24248147 175.16675066 -0.24248147 176.25719386 -0.25822389 C182.6496288 -0.17108016 187.72519172 2.06418569 192.48161316 6.23226929 C193.02044128 6.88324585 193.55926941 7.53422241 194.11442566 8.20492554 C194.66872253 8.85332397 195.22301941 9.50172241 195.79411316 10.16976929 C198.56119397 14.18577576 199.48909261 17.7546864 199.5068512 22.59831238 C199.51964615 24.18155556 199.51964615 24.18155556 199.53269958 25.79678345 C199.53134003 27.51825592 199.53134003 27.51825592 199.529953 29.27450562 C199.53667023 30.4913353 199.54338745 31.70816498 199.55030823 32.96186829 C199.56603694 36.29265813 199.57266245 39.62319859 199.5739398 42.95400834 C199.57536371 45.03776184 199.57963787 47.12148939 199.58493423 49.20523643 C199.60342636 56.48290027 199.61160601 63.76049094 199.61003113 71.03817749 C199.60883042 77.80869169 199.62992062 84.57888675 199.66151845 91.34932023 C199.68772294 97.17286762 199.69839666 102.99631105 199.69712031 108.8199169 C199.69661183 112.29330054 199.70223097 115.76640051 199.72347641 119.23972511 C199.74654798 123.11732926 199.73731235 126.99450038 199.7252655 130.87216187 C199.73650452 132.01373749 199.74774353 133.15531311 199.75932312 134.33148193 C199.69797577 142.11202735 198.54462235 147.49569015 193.27458191 153.50961304 C192.62360535 154.04844116 191.97262878 154.58726929 191.30192566 155.14242554 C190.65352722 155.69672241 190.00512878 156.25101929 189.33708191 156.82211304 C184.55343419 160.11810867 180.16709596 160.55934525 174.47885132 160.53485107 C173.70434877 160.53938219 172.92984623 160.5439133 172.13187391 160.54858172 C169.54030357 160.56122764 166.94894333 160.55960523 164.35734558 160.55795288 C162.49768809 160.56393803 160.63803308 160.57074355 158.77838135 160.57830811 C153.72870126 160.59597718 148.67908895 160.60066389 143.62938094 160.60193968 C140.4735689 160.60336138 137.31777409 160.60763136 134.16196632 160.61293411 C123.14960766 160.63143776 112.13729741 160.63960435 101.12492371 160.63803101 C90.86443417 160.63682968 80.60415501 160.65792937 70.34371871 160.68951833 C61.53081689 160.71568257 52.71798378 160.72639823 43.90504342 160.72512019 C38.64317544 160.72461058 33.3814944 160.73029336 28.11966515 160.75147629 C23.16935751 160.77086093 18.21941509 160.77098151 13.26909447 160.75644302 C11.45509304 160.75435408 9.64106873 160.75906094 7.82710648 160.77116394 C5.34462794 160.78665089 2.86340337 160.77728637 0.38095093 160.76190186 C-0.33161592 160.77218898 -1.04418276 160.78247611 -1.77834255 160.79307497 C-8.17077749 160.70593124 -13.2463404 158.47066538 -18.00276184 154.30258179 C-18.81100403 153.32611694 -18.81100403 153.32611694 -19.63557434 152.32992554 C-20.18987122 151.6815271 -20.74416809 151.03312866 -21.31526184 150.36508179 C-24.08234265 146.34907532 -25.01024129 142.78016468 -25.02799988 137.9365387 C-25.03652985 136.88104324 -25.04505981 135.82554779 -25.05384827 134.73806763 C-25.05294189 133.59041931 -25.05203552 132.442771 -25.05110168 131.26034546 C-25.05781891 130.04351578 -25.06453613 128.8266861 -25.07145691 127.57298279 C-25.08718562 124.24219294 -25.09381113 120.91165249 -25.09508848 117.58084273 C-25.09651239 115.49708923 -25.10078655 113.41336168 -25.10608292 111.32961464 C-25.12457504 104.05195081 -25.13275469 96.77436013 -25.13117981 89.49667358 C-25.1299791 82.72615938 -25.1510693 75.95596432 -25.18266714 69.18553084 C-25.20887162 63.36198345 -25.21954534 57.53854002 -25.21826899 51.71493417 C-25.21776051 48.24155054 -25.22337965 44.76845056 -25.24462509 41.29512596 C-25.26769666 37.41752181 -25.25846103 33.54035069 -25.24641418 29.66268921 C-25.2576532 28.52111359 -25.26889221 27.37953796 -25.2804718 26.20336914 C-25.21912445 18.42282372 -24.06577103 13.03916092 -18.79573059 7.02523804 C-18.14475403 6.48640991 -17.49377747 5.94758179 -16.82307434 5.39242554 C-16.1746759 4.83812866 -15.52627747 4.28383179 -14.85823059 3.71273804 C-10.07458287 0.4167424 -5.68824464 -0.02449417 0 0 Z M-6.76057434 19.26742554 C-9.75094948 25.84583591 -9.75094948 25.84583591 -8.76057434 40.26742554 C54.59942566 40.26742554 117.95942566 40.26742554 183.23942566 40.26742554 C184.43199525 25.53453072 184.43199525 25.53453072 180.23942566 18.26742554 C176.32131973 15.88535224 172.50345231 16.01392595 167.99688721 16.00672913 C166.91877129 16.00099081 166.91877129 16.00099081 165.81887525 15.99513656 C163.41609646 15.98483698 161.01355798 15.98879286 158.61076355 15.99276733 C156.8857908 15.98841919 155.16081999 15.98323569 153.43585205 15.97727966 C148.75405463 15.96388982 144.07233794 15.96331096 139.3905251 15.96584296 C135.48141182 15.96691263 131.57231487 15.96202943 127.66320509 15.95723754 C118.44095954 15.94614251 109.21875473 15.945705 99.99650574 15.95175171 C90.48354358 15.95779312 80.97072927 15.94547622 71.45779234 15.92418164 C63.28865366 15.90656773 55.11956204 15.90056393 46.95040506 15.90381938 C42.07204985 15.90563264 37.19380012 15.90299176 32.31546211 15.88910484 C27.727983 15.87653448 23.14073445 15.8784631 18.5532589 15.89151573 C16.87065173 15.89388275 15.18802837 15.89114233 13.50543976 15.88289261 C11.20634154 15.87243384 8.90801824 15.8805182 6.60894775 15.89320374 C5.32308808 15.89303599 4.03722841 15.89286825 2.7124033 15.89269543 C-1.16420833 16.31097716 -3.52538008 17.0950372 -6.76057434 19.26742554 Z M-8.76057434 56.26742554 C-13.67453481 100.78155621 -13.67453481 100.78155621 -5.76057434 142.26742554 C-1.84246842 144.64949883 1.97539901 144.52092512 6.48196411 144.52812195 C7.56008003 144.53386027 7.56008003 144.53386027 8.65997607 144.53971452 C11.06275486 144.5500141 13.46529334 144.54605821 15.86808777 144.54208374 C17.59306051 144.54643189 19.31803133 144.55161538 21.04299927 144.55757141 C25.72479669 144.57096126 30.40651338 144.57154012 35.08832622 144.56900811 C38.9974395 144.56793844 42.90653645 144.57282164 46.81564623 144.57761353 C56.03789178 144.58870856 65.26009659 144.58914607 74.48234558 144.58309937 C83.99530774 144.57705796 93.50812205 144.58937485 103.02105898 144.61066943 C111.19019766 144.62828334 119.35928928 144.63428714 127.52844626 144.63103169 C132.40680146 144.62921844 137.2850512 144.63185932 142.16338921 144.64574623 C146.75086832 144.65831659 151.33811687 144.65638798 155.92559242 144.64333534 C157.60819959 144.64096833 159.29082295 144.64370874 160.97341156 144.65195847 C163.27250978 144.66241723 165.57083308 144.65433287 167.86990356 144.64164734 C169.15576324 144.64181508 170.44162291 144.64198282 171.76644802 144.64215565 C175.64305965 144.22387392 178.0042314 143.43981388 181.23942566 141.26742554 C191.76507395 114.9533048 183.23942566 84.60860092 183.23942566 56.26742554 C119.87942566 56.26742554 56.51942566 56.26742554 -8.76057434 56.26742554 Z " fill="#ffffff" transform="translate(40.76057434082031,47.732574462890625)"/>
<path d="M0 0 C1.04269043 -0.00574036 1.04269043 -0.00574036 2.10644531 -0.01159668 C3.57228041 -0.0143118 5.03816428 -0.00697835 6.50390625 0.00976562 C8.74328975 0.03118581 10.97946587 0.00995557 13.21875 -0.015625 C14.64584039 -0.01298165 16.07292879 -0.0078565 17.5 0 C19.44132812 0.00676758 19.44132812 0.00676758 21.421875 0.01367188 C25.25919979 0.61043894 26.44070951 1.47408051 28.75 4.53125 C29.28125 6.53125 29.28125 6.53125 29.25 8.53125 C29.2603125 9.19125 29.270625 9.85125 29.28125 10.53125 C28.48927074 13.51281897 27.16446325 14.62735121 24.75 16.53125 C21.421875 17.04882812 21.421875 17.04882812 17.5 17.0625 C16.80487305 17.0663269 16.10974609 17.07015381 15.39355469 17.07409668 C13.92771959 17.0768118 12.46183572 17.06947835 10.99609375 17.05273438 C8.75671025 17.03131419 6.52053413 17.05254443 4.28125 17.078125 C2.85415961 17.07548165 1.42707121 17.0703565 0 17.0625 C-1.29421875 17.05798828 -2.5884375 17.05347656 -3.921875 17.04882812 C-7.75919979 16.45206106 -8.94070951 15.58841949 -11.25 12.53125 C-11.78125 10.53125 -11.78125 10.53125 -11.75 8.53125 C-11.76546875 7.54125 -11.76546875 7.54125 -11.78125 6.53125 C-10.16044839 0.42940865 -5.57509951 0.01943511 0 0 Z " fill="#ffffff" transform="translate(59.25,159.46875)"/>
</svg>
