<?xml version="1.0" encoding="UTF-8"?>
<svg version="1.1" xmlns="http://www.w3.org/2000/svg" width="256" height="256">
<path d="M0 0 C0.92296875 -0.02835938 1.8459375 -0.05671875 2.796875 -0.0859375 C13.15600849 1.29684276 22.71618181 6.84973984 31.97265625 11.44921875 C33.36785208 12.13943363 34.76307043 12.82960302 36.15830994 13.51972961 C39.06587021 14.96010567 41.97076599 16.4057098 44.87426758 17.85424805 C48.56373664 19.69354628 52.26295445 21.51225363 55.96492863 23.32622051 C58.84546187 24.74211023 61.71855536 26.17262218 64.58990288 27.60703468 C65.94939936 28.28320886 67.31149793 28.95418128 68.67637825 29.61942101 C80.33180305 35.31134316 89.9314707 41.06646456 95.24951077 53.40132999 C96.84691897 58.14917206 96.94083674 62.59022315 96.88110352 67.56274414 C96.89183647 69.15039833 96.89183647 69.15039833 96.90278625 70.77012634 C96.91955674 74.23392223 96.90033913 77.69640256 96.87890625 81.16015625 C96.87973595 83.58670661 96.88219914 86.0132569 96.88621521 88.43980408 C96.88906519 93.5109053 96.8744484 98.58156289 96.84692383 103.65258789 C96.8128251 110.13429748 96.81887349 116.6152153 96.8375864 123.09696293 C96.84818226 128.10288528 96.83919524 133.10862515 96.82420158 138.11453056 C96.81903957 140.50380345 96.81947735 142.89309556 96.82574654 145.2823658 C96.83123057 148.62754068 96.81072079 151.97160254 96.78344727 155.31665039 C96.79323608 156.77967087 96.79323608 156.77967087 96.80322266 158.27224731 C96.67941407 167.25696837 94.1681139 175.18931744 87.953125 181.84375 C81.63672081 187.5227189 74.67962501 190.61495811 66.12896729 190.64242554 C64.32081543 190.65522049 64.32081543 190.65522049 62.47613525 190.66827393 C61.16691101 190.66736755 59.85768677 190.66646118 58.50878906 190.66552734 C57.10542444 190.67151681 55.7020631 190.67832331 54.29870605 190.68588257 C50.49684055 190.70350959 46.69506515 190.70823661 42.89316273 190.70951414 C40.51406996 190.71093843 38.1349999 190.71521334 35.75591278 190.72050858 C27.44500786 190.73899956 19.13416699 190.74718056 10.82324219 190.74560547 C3.09448458 190.74440506 -4.63399332 190.76548992 -12.3626802 190.7970928 C-19.01259724 190.82330875 -25.66242324 190.83397051 -32.31239152 190.83269465 C-36.27765384 190.83218648 -40.24266758 190.8377887 -44.20787811 190.85905075 C-47.94103247 190.87852264 -51.67370345 190.87849728 -55.40687561 190.86401749 C-57.41594811 190.86095458 -59.42502111 190.87754391 -61.434021 190.89489746 C-71.4055271 190.8261461 -79.76380945 189.04075816 -87.21875 182.078125 C-94.33835206 174.15938394 -96.04875614 166.17749587 -96.07226562 155.78662109 C-96.08219543 154.73212769 -96.09212524 153.67763428 -96.10235596 152.59118652 C-96.13151112 149.11024336 -96.14518965 145.6294826 -96.15625 142.1484375 C-96.16776189 139.71953327 -96.17927724 137.29062905 -96.1907959 134.86172485 C-96.21179202 129.76929888 -96.22349237 124.67693581 -96.23046875 119.58447266 C-96.24142146 113.08140059 -96.28944931 106.57916956 -96.34641266 100.0763607 C-96.3837947 95.05752186 -96.39408351 90.0388828 -96.3971405 85.01991653 C-96.40316753 82.62387123 -96.41913628 80.22782835 -96.44551086 77.83192062 C-96.70339218 52.60062347 -96.70339218 52.60062347 -87.89541626 42.18109131 C-81.51472623 35.8139766 -73.23723076 32.14559147 -65.2421875 28.2265625 C-63.74671677 27.48155514 -62.2517817 26.73547166 -60.75735474 25.9883728 C-57.6433967 24.43523387 -54.52505889 22.89142724 -51.40283203 21.35498047 C-47.41389962 19.39175117 -43.43400446 17.41099132 -39.45690727 15.42391396 C-36.37778973 13.88671133 -33.29549713 12.35597275 -30.21207047 10.82743454 C-28.74350298 10.0991507 -27.27558325 9.36955907 -25.80834579 8.6385994 C-23.75653604 7.61833741 -21.70093975 6.60615055 -19.64404297 5.59619141 C-17.89605911 4.73303818 -17.89605911 4.73303818 -16.11276245 3.85244751 C-10.81908977 1.52664435 -5.78966439 0.07996774 0 0 Z M-5.41918945 24.26611328 C-6.31615036 24.70438446 -7.21311127 25.14265564 -8.13725281 25.59420776 C-9.09871719 26.08132233 -10.06018158 26.56843689 -11.05078125 27.0703125 C-12.06199539 27.56894806 -13.07320953 28.06758362 -14.11506653 28.58132935 C-16.25398601 29.63719803 -18.3900762 30.69881485 -20.52349854 31.76574707 C-23.63250257 33.31639687 -26.75166579 34.84377532 -29.87646484 36.36230469 C-34.90136142 38.8056007 -39.91310379 41.2742623 -44.91870117 43.75683594 C-46.96283899 44.7679113 -49.00947309 45.77395274 -51.05834961 46.77539062 C-54.07987657 48.252845 -57.09332861 49.74570742 -60.10546875 51.2421875 C-61.47556343 51.90636185 -61.47556343 51.90636185 -62.87333679 52.58395386 C-63.71975235 53.00854889 -64.56616791 53.43314392 -65.43823242 53.87060547 C-66.17716232 54.23491669 -66.91609222 54.59922791 -67.67741394 54.97457886 C-70.49926313 56.88126796 -71.98670855 58.42490067 -73.75 61.375 C-74.321821 64.60080105 -74.28646931 67.77386831 -74.25170898 71.04296875 C-74.25711197 72.01102448 -74.26251495 72.9790802 -74.26808167 73.97647095 C-74.2805752 77.17212624 -74.26407327 80.36688175 -74.24609375 83.5625 C-74.24624872 85.78540087 -74.24773741 88.00830202 -74.25050354 90.23120117 C-74.25188782 94.88830521 -74.23932428 99.54510138 -74.21655273 104.20214844 C-74.18816834 110.17101056 -74.1909052 116.13936113 -74.20364285 122.10826111 C-74.21059857 126.6979204 -74.20281189 131.28746151 -74.19038582 135.87710571 C-74.18587031 138.07792711 -74.18553539 140.27876119 -74.18945122 142.47958374 C-74.19236232 145.55566404 -74.17586067 148.63103996 -74.15405273 151.70703125 C-74.15855438 152.6162735 -74.16305603 153.52551575 -74.16769409 154.46231079 C-74.11181866 159.20703556 -73.96637015 162.60662854 -70.75 166.375 C-67.52672823 168.40568631 -64.98898277 168.62777547 -61.21546936 168.63569641 C-60.08969986 168.64278122 -58.96393036 168.64986603 -57.80404663 168.65716553 C-56.573284 168.65468811 -55.34252136 168.65221069 -54.07446289 168.6496582 C-52.77493179 168.65476913 -51.4754007 168.65988007 -50.13648987 168.66514587 C-46.57449252 168.67853285 -43.0126013 168.6791149 -39.4505837 168.67658257 C-36.47590768 168.67551266 -33.50125312 168.68039674 -30.5265817 168.685188 C-23.50834608 168.69628212 -16.49016398 168.69672112 -9.47192383 168.69067383 C-2.23393361 168.68463305 5.00386226 168.6969478 12.24181932 168.7182439 C18.45849977 168.73586192 24.67511838 168.74186095 30.89182287 168.73860615 C34.60372137 168.73679348 38.31548123 168.73942781 42.0273571 168.75332069 C46.16672248 168.76823399 50.30569244 168.7589272 54.44506836 168.74731445 C55.67380676 168.75495819 56.90254517 168.76260193 58.16851807 168.77047729 C59.86140205 168.75995583 59.86140205 168.75995583 61.58848572 168.7492218 C63.05602248 168.74947341 63.05602248 168.74947341 64.55320644 168.74973011 C67.80873039 168.29736221 69.64008386 167.35914884 72.25 165.375 C74.11132967 162.61376531 74.50224914 160.4242328 74.51742554 157.13124084 C74.52595551 156.29155258 74.53448547 155.45186432 74.54327393 154.58673096 C74.54236755 153.67389343 74.54146118 152.76105591 74.54052734 151.82055664 C74.54724457 150.85264694 74.55396179 149.88473724 74.56088257 148.88749695 C74.57988669 145.68666456 74.58378783 142.48604154 74.5859375 139.28515625 C74.59236313 137.06082574 74.59909132 134.83649608 74.60610962 132.61216736 C74.61808799 127.94918864 74.6217898 123.28628404 74.62060547 118.62329102 C74.62040211 112.64651532 74.6477195 106.67021421 74.68214989 100.69355106 C74.70437876 96.09962274 74.70844426 91.50580942 74.70738602 86.91183281 C74.70974744 84.70819905 74.71860127 82.50456238 74.73405075 80.30098152 C74.75363154 77.21992783 74.74790371 74.13990798 74.73583984 71.05883789 C74.74707886 70.1480246 74.75831787 69.2372113 74.76989746 68.29879761 C74.7306876 64.36093713 74.58587445 61.96936726 72.62171936 58.49357605 C69.84432873 56.01262768 67.15264524 54.45573406 63.81665039 52.79394531 C63.18036209 52.47295364 62.54407379 52.15196198 61.88850403 51.82124329 C59.79722275 50.77007474 57.6978479 49.73636056 55.59765625 48.703125 C54.13517742 47.97367538 52.67314251 47.24333513 51.21153259 46.512146 C48.15288776 44.98516504 45.09039292 43.46630789 42.0246582 41.95361328 C38.10000353 40.0167879 34.183448 38.06422877 30.2694025 36.10606766 C27.25290219 34.59822584 24.23331199 33.09666483 21.21264458 31.59719086 C19.7674793 30.87937235 18.3230298 30.16011086 16.87932014 29.4393692 C14.86006406 28.43300243 12.83704715 27.43464433 10.81274414 26.43847656 C9.08877159 25.58506683 9.08877159 25.58506683 7.32997131 24.7144165 C2.31201004 22.53220782 -0.44025811 21.78443984 -5.41918945 24.26611328 Z " fill="#ffffff" transform="translate(127.75,33.625)"/>
<path d="M0 0 C0.71402481 -0.00817749 1.42804962 -0.01635498 2.16371155 -0.02478027 C4.53125162 -0.04963192 6.89873175 -0.06614971 9.26635742 -0.08056641 C10.47885949 -0.08855192 10.47885949 -0.08855192 11.71585655 -0.09669876 C15.99448066 -0.12342954 20.2730756 -0.14280451 24.55175781 -0.15722656 C28.97054386 -0.17387327 33.3885839 -0.21865059 37.8070879 -0.26959801 C41.20518345 -0.30325896 44.60310168 -0.31480266 48.0013485 -0.32045364 C49.63005969 -0.32716953 51.25875909 -0.34240055 52.88730812 -0.36634445 C55.16897941 -0.39797642 57.44863564 -0.39803702 59.73046875 -0.390625 C61.67666862 -0.40275528 61.67666862 -0.40275528 63.66218567 -0.41513062 C67.92449032 0.34771346 69.36755907 1.88191773 72.05932617 5.19287109 C73.66239541 8.39900957 73.54673078 11.71427106 73.05932617 15.19287109 C70.8938902 18.75037305 68.91491399 20.69795031 65.05932617 22.19287109 C61.96121216 22.46029663 61.96121216 22.46029663 58.2746582 22.48339844 C57.60096191 22.49011566 56.92726563 22.49683289 56.2331543 22.50375366 C54.01107358 22.52271582 51.78929521 22.52665692 49.56713867 22.52880859 C48.01781084 22.53523789 46.46848423 22.54196635 44.91915894 22.54898071 C41.67272121 22.56094908 38.42638987 22.56466201 35.17993164 22.56347656 C31.02816064 22.56327342 26.87707454 22.59057166 22.72546577 22.62502098 C19.52547091 22.64730318 16.32564051 22.65131371 13.12557602 22.65025711 C11.59541336 22.65261123 10.06524605 22.66142421 8.53516006 22.67692184 C6.39055235 22.69660955 4.24741671 22.69073471 2.1027832 22.67871094 C0.27555222 22.68298599 0.27555222 22.68298599 -1.58859253 22.68734741 C-5.6326997 22.09078813 -7.77468839 20.73663558 -10.94067383 18.19287109 C-13.40850542 14.4911237 -13.62140115 11.48793634 -12.94067383 7.19287109 C-9.32168282 0.55805424 -7.30271435 0.07251748 0 0 Z " fill="#ffffff" transform="translate(97.940673828125,159.80712890625)"/>
</svg>
