<?xml version="1.0" encoding="UTF-8"?>
<svg version="1.1" xmlns="http://www.w3.org/2000/svg" width="256" height="256">
<path d="M0 0 C1.78290939 -0.01279495 1.78290939 -0.01279495 3.60183716 -0.02584839 C4.89235992 -0.02494202 6.18288269 -0.02403564 7.51251221 -0.02310181 C8.8961727 -0.02909143 10.27982986 -0.03589798 11.66348267 -0.04345703 C15.41163113 -0.06108243 19.1596882 -0.06581101 22.90787411 -0.0670886 C25.25346507 -0.06851299 27.599033 -0.07278808 29.94461823 -0.07808304 C38.13881396 -0.09657352 46.33294474 -0.10475509 54.52716064 -0.10317993 C62.14685678 -0.10197955 69.7662692 -0.12306394 77.38589358 -0.15466726 C83.94239333 -0.18088507 90.49880074 -0.19154489 97.05535245 -0.19026911 C100.96472486 -0.18976099 104.87384511 -0.19536029 108.78316498 -0.21662521 C112.46379188 -0.23610026 116.14392854 -0.23606965 119.82457352 -0.22159195 C121.8050196 -0.21852978 123.78546622 -0.2351162 125.76583862 -0.25247192 C136.36973383 -0.17833499 144.41822339 2.04979963 152.20098877 9.40805054 C158.51082563 16.0973208 161.1944807 22.13799769 161.22904968 31.50286865 C161.23428636 32.20880523 161.23952304 32.91474181 161.24491841 33.64207041 C161.25985959 35.9955998 161.26062224 38.34891066 161.2612915 40.70248413 C161.26891686 42.39480453 161.27734501 44.08712147 161.28651428 45.7794342 C161.30842678 50.36831942 161.31725361 54.95713801 161.32234073 59.54606962 C161.3259876 62.41494375 161.33222933 65.28380051 161.33934212 68.152668 C161.3638236 78.16651423 161.37688607 88.18030873 161.38043213 98.19418335 C161.38406821 107.52032779 161.41397215 116.84614331 161.45583671 126.17218721 C161.49054987 134.1868157 161.50598073 142.2013352 161.50667816 150.21603835 C161.50747051 154.99952397 161.51619006 159.78267423 161.54467583 164.566082 C161.57087468 169.06587005 161.57305168 173.56504506 161.55702019 178.06487465 C161.55520724 179.71279171 161.56188254 181.36074417 161.5778389 183.00858498 C161.66460708 192.55394397 161.42214465 199.58045724 154.51216793 206.76813316 C149.42460782 211.44562966 144.03556587 212.75280671 137.31036377 212.58383179 C130.64894104 211.68901381 124.69686796 207.67117282 118.99786377 204.31820679 C113.4188304 201.44868484 107.06654711 201.49260709 100.95489502 202.26742554 C96.71153024 203.87175187 92.87399161 205.99613092 88.95489502 208.26742554 C87.54543513 209.03088298 86.12960088 209.78281158 84.70489502 210.51742554 C84.16348877 210.81133179 83.62208252 211.10523804 83.06427002 211.40805054 C71.71066552 216.03359311 58.0400246 215.91586351 46.66973877 211.54867554 C42.98631479 209.81031141 39.5621098 207.75883925 36.11505127 205.59555054 C29.6472546 201.61896669 22.18280172 201.130093 14.81817627 202.73226929 C9.90721324 204.41574343 5.60607605 207.17542749 1.25177002 209.96273804 C-3.83149986 212.85017365 -9.32800895 212.86241743 -15.04510498 212.26742554 C-21.70805639 210.39607782 -26.12177796 205.80557121 -30.04510498 200.26742554 C-31.20452409 196.7891682 -31.1798365 194.07096142 -31.192276 190.3994751 C-31.19779103 189.34547349 -31.19779103 189.34547349 -31.20341748 188.27017891 C-31.2144525 185.909716 -31.21829788 183.54929711 -31.22210693 181.18881226 C-31.22837183 179.49855917 -31.23501865 177.80830745 -31.24201965 176.11805725 C-31.263063 170.56108561 -31.2734237 165.00411368 -31.28338623 159.44711304 C-31.28743397 157.53332632 -31.2915509 155.61953975 -31.29573631 153.70575333 C-31.31479021 144.71266408 -31.32901966 135.71958305 -31.33734828 126.7264775 C-31.34711564 116.35140823 -31.37342125 105.97655258 -31.41384917 95.60155857 C-31.44403418 87.5793413 -31.45881951 79.55718517 -31.46212929 71.53491223 C-31.46447747 66.7452434 -31.47340733 61.95580274 -31.49859047 57.16619492 C-31.5219173 52.65667373 -31.52608594 48.14753019 -31.51582909 43.63796425 C-31.5153347 41.98724548 -31.52162638 40.33650783 -31.53538513 38.68584633 C-31.62921979 26.75603301 -30.35944936 18.07374434 -21.97088623 9.05648804 C-15.68361633 3.21557604 -8.64369258 0.0281644 0 0 Z M-7.83505726 27.04522324 C-9.48774896 30.0803228 -9.41398002 32.37257368 -9.40586853 35.82266235 C-9.4084318 36.47944843 -9.41099508 37.13623451 -9.41363603 37.81292319 C-9.41857424 40.0118749 -9.40208129 42.21013874 -9.38568115 44.4090271 C-9.38483488 45.98595158 -9.38531002 47.56287724 -9.38700867 49.13980103 C-9.38787006 53.42052281 -9.37022107 57.70099284 -9.34928679 61.98165607 C-9.33054396 66.45529723 -9.32877144 70.92894404 -9.32521057 75.40261841 C-9.31588307 83.87404029 -9.29125974 92.34534614 -9.2611621 100.81671691 C-9.22764004 110.461108 -9.2111376 120.1055046 -9.1960758 129.74993944 C-9.1647108 149.58916625 -9.11193658 169.42828859 -9.04510498 189.26742554 C-7.86432373 188.7015271 -6.68354248 188.13562866 -5.46697998 187.55258179 C-3.90977961 186.8115045 -2.35248288 186.07062966 -0.79510498 185.32992554 C-0.01780029 184.95674194 0.75950439 184.58355835 1.56036377 184.19906616 C2.31446533 183.84135132 3.06856689 183.48363647 3.84552002 183.11508179 C4.88240967 182.62020264 4.88240967 182.62020264 5.94024658 182.11532593 C15.30127016 178.17557376 30.25804512 178.67576813 39.65802002 182.14242554 C43.61086602 184.07851338 47.37033296 186.30550479 51.09552002 188.64633179 C57.27794172 192.15139327 62.96277439 193.09612132 69.95489502 192.26742554 C76.49750399 190.454041 82.31364503 187.08207553 88.11895752 183.63461304 C98.8033698 178.48372558 113.44673009 178.43221313 124.64239502 181.95492554 C128.88709017 183.6158932 132.69969335 185.70049103 136.43145752 188.31430054 C137.93797504 189.44422209 137.93797504 189.44422209 139.95489502 189.26742554 C140.02498012 168.77043325 140.07788077 148.27346072 140.11033154 127.77637291 C140.12579956 118.25918955 140.14688788 108.74208064 140.18121338 99.22494507 C140.21111767 90.92968401 140.23047049 82.63447688 140.2371605 74.33916342 C140.24107101 69.9469616 140.25025993 65.55491406 140.27208519 61.16276169 C140.29246661 57.02761696 140.29872548 52.89268988 140.29421806 48.75749969 C140.29504252 47.24097892 140.3009984 45.72445078 140.31251144 44.20797348 C140.32748202 42.13413108 140.32383272 40.06110575 140.31565857 37.98724365 C140.31842395 36.82762808 140.32118933 35.6680125 140.32403851 34.47325706 C139.89371085 30.73607084 138.9966276 28.42422374 136.95489502 25.26742554 C133.42776549 22.47284717 130.78280298 21.89165911 126.33807373 21.88647461 C124.65997871 21.8737854 124.65997871 21.8737854 122.94798279 21.86083984 C121.73016617 21.86691254 120.51234955 21.87298523 119.25762939 21.87924194 C117.96770584 21.87398499 116.67778229 21.86872803 115.34877014 21.86331177 C111.81776506 21.8496554 108.28702346 21.85492972 104.75601387 21.86444902 C101.05744858 21.87205438 97.35890555 21.86499758 93.66033936 21.86029053 C87.44972695 21.85483552 81.23922163 21.86201786 75.02862549 21.87631226 C67.85251899 21.89263835 60.67666821 21.88734966 53.50056791 21.87083304 C47.33481266 21.85721087 41.1691343 21.85530207 35.00336885 21.86314905 C31.32279552 21.86782157 27.64234231 21.86846207 23.96177673 21.85853958 C19.85841778 21.84824962 15.75549837 21.86251919 11.65216064 21.87924194 C9.82543571 21.8701329 9.82543571 21.8701329 7.96180725 21.86083984 C6.84307724 21.86929932 5.72434723 21.87775879 4.57171631 21.88647461 C3.60203163 21.88760569 2.63234695 21.88873676 1.63327789 21.88990211 C-2.44189697 22.46430616 -4.94813102 24.17790053 -7.83505726 27.04522324 Z " fill="#ffffff" transform="translate(63.04510498046875,20.732574462890625)"/>
<path d="M0 0 C1.33241226 -0.01007584 1.33241226 -0.01007584 2.69174194 -0.02035522 C5.62804763 -0.03935224 8.56412496 -0.04326028 11.50048828 -0.04541016 C13.54306126 -0.05183686 15.58563331 -0.05856513 17.62820435 -0.06558228 C21.91036107 -0.07755928 26.19243709 -0.08126266 30.47460938 -0.08007812 C35.95806313 -0.07987491 41.44099879 -0.10717841 46.92432976 -0.14162254 C51.14342621 -0.16387476 55.36239765 -0.16791618 59.58154678 -0.16685867 C61.60293488 -0.1692171 63.6243263 -0.17805423 65.64565659 -0.19352341 C68.47507621 -0.21314933 71.30337429 -0.20735865 74.1328125 -0.1953125 C75.38143066 -0.21217102 75.38143066 -0.21217102 76.65527344 -0.22937012 C81.96490611 -0.17201223 84.97255206 0.78265349 89.19580078 4.29052734 C91.20123044 7.15948479 91.46220343 9.27753953 91.13330078 12.72802734 C91.08044922 13.46923828 91.02759766 14.21044922 90.97314453 14.97412109 C89.78891218 18.50301449 88.1157214 19.98396752 85.19580078 22.29052734 C82.09548501 23.02176989 79.06912969 22.97434814 75.89501953 22.9375 C74.96597809 22.9462616 74.03693665 22.95502319 73.07974243 22.96405029 C70.01378449 22.98602747 66.94927296 22.97149718 63.88330078 22.95458984 C61.75007857 22.95795845 59.61685822 22.96281144 57.48364258 22.96908569 C53.01478791 22.97645477 48.54643323 22.96575001 44.07763672 22.94238281 C38.35066429 22.91389547 32.62486341 22.9302992 26.89793396 22.96024513 C22.49352193 22.97831689 18.08938745 22.97256053 13.68496704 22.95960617 C11.5734544 22.95627185 9.46191652 22.96036014 7.35043335 22.97200394 C4.3984711 22.98471026 1.44840324 22.96533801 -1.50341797 22.9375 C-2.81117691 22.95268173 -2.81117691 22.95268173 -4.14535522 22.96817017 C-8.54540231 22.8913355 -10.27051117 22.7134947 -13.83251953 19.89047241 C-16.70809844 16.09860538 -17.234043 12.98574405 -16.80419922 8.29052734 C-12.88999093 0.31714009 -8.29174456 -0.00898477 0 0 Z " fill="#ffffff" transform="translate(90.80419921875,105.70947265625)"/>
<path d="M0 0 C0.92904144 -0.0087616 1.85808289 -0.01752319 2.8152771 -0.02655029 C5.88123504 -0.04852747 8.94574657 -0.03399718 12.01171875 -0.01708984 C14.14494096 -0.02045845 16.27816131 -0.02531144 18.41137695 -0.03158569 C22.88023162 -0.03895477 27.3485863 -0.02825001 31.81738281 -0.00488281 C37.54435524 0.02360453 43.27015612 0.0072008 48.99708557 -0.02274513 C53.4014976 -0.04081689 57.80563208 -0.03506053 62.21005249 -0.02210617 C64.32156513 -0.01877185 66.43310301 -0.02286014 68.54458618 -0.03450394 C71.49654843 -0.04721026 74.44661629 -0.02783801 77.3984375 0 C78.70619644 -0.01518173 78.70619644 -0.01518173 80.04037476 -0.03067017 C84.44042184 0.0461645 86.16553071 0.2240053 89.72753906 3.04702759 C92.60311797 6.83889462 93.12906253 9.95175595 92.69921875 14.64697266 C90.69484481 18.72995661 88.98089794 21.11991591 84.69921875 22.64697266 C81.73340196 22.84861792 78.86113464 22.94071402 75.89501953 22.9375 C75.00674469 22.94421722 74.11846985 22.95093445 73.20327759 22.95785522 C70.2669719 22.97685224 67.33089457 22.98076028 64.39453125 22.98291016 C62.35195827 22.98933686 60.30938622 22.99606513 58.26681519 23.00308228 C53.98465847 23.01505928 49.70258245 23.01876266 45.42041016 23.01757812 C39.9369564 23.01737491 34.45402075 23.04467841 28.97068977 23.07912254 C24.75159332 23.10137476 20.53262188 23.10541618 16.31347275 23.10435867 C14.29208465 23.1067171 12.27069323 23.11555423 10.24936295 23.13102341 C7.41994332 23.15064933 4.59164524 23.14485865 1.76220703 23.1328125 C0.51358887 23.14967102 0.51358887 23.14967102 -0.76025391 23.16687012 C-6.06988658 23.10951223 -9.07753253 22.15484651 -13.30078125 18.64697266 C-15.30621091 15.77801521 -15.5671839 13.65996047 -15.23828125 10.20947266 C-15.18542969 9.46826172 -15.13257812 8.72705078 -15.078125 7.96337891 C-12.51344581 0.32089267 -6.97044584 -0.08091969 0 0 Z " fill="#ffffff" transform="translate(89.30078125,63.35302734375)"/>
<path d="M0 0 C1.00146561 -0.0159874 2.00293121 -0.03197479 3.03474426 -0.04844666 C4.6566291 -0.05649071 4.6566291 -0.05649071 6.3112793 -0.06469727 C7.4248027 -0.07372574 8.53832611 -0.08275421 9.68559265 -0.09205627 C12.04346014 -0.10657337 14.40136805 -0.11544912 16.75927734 -0.11914062 C20.36128983 -0.13102365 23.96158229 -0.18018676 27.56323242 -0.23071289 C29.85423969 -0.2401785 32.14525747 -0.24741287 34.4362793 -0.25219727 C36.0490551 -0.28149574 36.0490551 -0.28149574 37.69441223 -0.31138611 C46.05085019 -0.26114667 46.05085019 -0.26114667 49.73779297 2.71630859 C52.93185425 6.25899507 53.46743987 8.38800653 53.43237305 13.20092773 C52.79717991 16.92233101 50.73320788 18.70952498 48.07299805 21.30639648 C45.62176406 22.53201348 43.98463375 22.45296056 41.24365234 22.48339844 C40.23888351 22.49623367 39.23411469 22.50906891 38.19889832 22.52229309 C37.10934341 22.52968002 36.01978851 22.53706696 34.8972168 22.54467773 C33.77990677 22.55274948 32.66259674 22.56082123 31.51142883 22.56913757 C29.14337724 22.58298595 26.77530561 22.59370472 24.40722656 22.6015625 C20.78566667 22.61877685 17.16501905 22.66265777 13.54370117 22.70678711 C11.24487977 22.71691363 8.9460506 22.72542986 6.6472168 22.73217773 C5.56373459 22.74968582 4.48025238 22.76719391 3.36393738 22.78523254 C-4.17500432 22.76348621 -4.17500432 22.76348621 -8.06835938 20.39697266 C-10.77129457 17.3567475 -11.77327617 15.48496079 -12.30200195 11.43139648 C-11.82561694 7.46152135 -10.39659769 5.41103113 -7.92700195 2.30639648 C-4.68863053 0.1474822 -3.74547771 0.04522113 0 0 Z " fill="#ffffff" transform="translate(85.927001953125,148.693603515625)"/>
</svg>
