<?xml version="1.0" encoding="UTF-8"?>
<svg version="1.1" xmlns="http://www.w3.org/2000/svg" width="256" height="256">
<path d="M0 0 C1.69569607 -0.00457468 3.39139029 -0.00988402 5.08708191 -0.0158844 C8.6246193 -0.02476685 12.16193037 -0.02244932 15.69946289 -0.01245117 C20.19091686 -0.00098225 24.6815821 -0.02116596 29.17293262 -0.05036831 C32.67096263 -0.06888321 36.16880904 -0.0684075 39.66687584 -0.06273079 C41.32076814 -0.06257936 42.97467436 -0.06847302 44.62851906 -0.08102226 C64.27462512 -0.20911027 81.53306643 4.28759451 96.18505859 18.18505859 C106.7555466 28.67044371 114.74012233 43.19238331 115.48046875 58.24609375 C115.28922244 68.30564984 111.86770964 76.81963557 105.04296875 84.24609375 C97.02513012 91.49964177 88.88202331 92.02051959 78.39477539 91.96704102 C77.01066676 91.97411116 75.62656586 91.98286076 74.24247742 91.9931488 C70.50679268 92.01553039 66.77153385 92.01272968 63.03580785 92.00382733 C59.90724174 91.99869416 56.77875404 92.00602881 53.65019602 92.01329941 C46.264855 92.03026279 38.87972078 92.02676873 31.49438477 92.01000977 C23.8966855 91.99309092 16.29956091 92.00892741 8.70192438 92.04123265 C2.15807337 92.06799436 -4.38559948 92.0751869 -10.92949969 92.06671757 C-14.82879527 92.06180755 -18.72774531 92.06389863 -22.62699699 92.08450508 C-26.29548285 92.10296644 -29.9631472 92.09677813 -33.63158989 92.07230568 C-35.60483478 92.06497446 -37.57812415 92.08207187 -39.55130005 92.10012817 C-49.24709057 91.99750583 -56.1694324 89.68926733 -63.51953125 83.30859375 C-70.25190117 76.05100348 -73.05047353 66.51288078 -72.84375 56.796875 C-72.08307327 43.64803432 -64.60456553 29.94156178 -55.70703125 20.43359375 C-55.01480469 19.68851563 -54.32257812 18.9434375 -53.609375 18.17578125 C-48.82906369 13.46729432 -43.76763401 10.0896451 -37.83203125 7.05859375 C-37.2088501 6.73689209 -36.58566895 6.41519043 -35.94360352 6.08374023 C-24.3653097 0.5033242 -12.60034487 -0.03010691 0 0 Z M-44.33984375 33.3671875 C-50.50929886 41.35897341 -56.54711241 52.1846036 -55.70703125 62.43359375 C-53.91490438 67.65413725 -51.50466496 71.50820734 -46.70703125 74.43359375 C-43.22294028 75.31529897 -39.96180667 75.56236805 -36.37614441 75.57403564 C-35.32064896 75.57974579 -34.2651535 75.58545593 -33.17767334 75.59133911 C-31.45620087 75.5930159 -31.45620087 75.5930159 -29.69995117 75.59472656 C-28.48312149 75.59969147 -27.26629181 75.60465637 -26.0125885 75.60977173 C-22.6818591 75.6218564 -19.35119228 75.6293321 -16.02044845 75.63378239 C-13.93670303 75.63671987 -11.85296303 75.64082592 -9.76922035 75.64528656 C-3.24131999 75.65894959 3.28656789 75.6686223 9.81448156 75.67248845 C17.33468792 75.67696758 24.85471238 75.69451361 32.37486345 75.72348905 C38.19839941 75.74514401 44.02188434 75.75519475 49.84546012 75.75652957 C53.31880081 75.7575748 56.79197023 75.76342215 60.26526833 75.78134918 C64.14280625 75.8009747 68.02011878 75.7965257 71.89770508 75.79003906 C73.0392807 75.79925385 74.18085632 75.80846863 75.35702515 75.81796265 C82.65540402 75.7797601 89.17417153 75.47031736 94.66796875 70.12109375 C98.49064698 63.79897207 98.97615602 58.54706377 97.29296875 51.43359375 C92.86346716 39.44230015 84.21923043 29.11371471 73.29296875 22.43359375 C69.69609802 20.8284596 66.07121114 19.54029152 62.29296875 18.43359375 C61.44552597 18.16860077 61.44552597 18.16860077 60.58096313 17.89825439 C57.43440811 17.25923172 54.41530847 17.28964777 51.20458984 17.27246094 C50.49830444 17.26749603 49.79201904 17.26253113 49.06433105 17.25741577 C46.73167944 17.24283373 44.39909593 17.23599702 42.06640625 17.23046875 C40.4369812 17.22471187 38.80755615 17.21895421 37.1781311 17.2131958 C33.76018968 17.20269555 30.34227169 17.19684722 26.92431641 17.19335938 C22.56681961 17.18789175 18.20963797 17.16389693 13.85223961 17.13538742 C10.48396942 17.11666119 7.11577342 17.11155005 3.7474556 17.1100235 C2.14245516 17.10701641 0.53745541 17.09905441 -1.06749344 17.08583832 C-18.18249811 16.95501999 -32.11530652 20.57633785 -44.33984375 33.3671875 Z " fill="#ffffff" transform="translate(106.70703125,140.56640625)"/>
<path d="M0 0 C0.89001709 0.00563965 1.78003418 0.0112793 2.69702148 0.01708984 C8.97128246 0.13331183 14.43286778 0.64869498 20.1875 3.3125 C21.06148438 3.69148438 21.93546875 4.07046875 22.8359375 4.4609375 C35.9370845 10.8096726 44.03323679 21.01359929 49.1875 34.3125 C53.51069433 47.87427772 52.10901978 62.355996 45.83203125 75.0546875 C38.0669667 88.75284426 27.30127593 96.86151744 12.1875 101.3125 C-1.35208525 104.76941538 -15.00328638 101.38148195 -27.05859375 94.96875 C-39.2036411 87.66449457 -46.88085464 75.57225893 -50.42578125 61.95703125 C-52.59581592 47.11750123 -50.3807751 33.36835078 -41.7734375 20.875 C-31.37889267 7.29169042 -17.25816017 -0.11372223 0 0 Z M-16.8125 21.3125 C-17.50730469 21.73660156 -18.20210937 22.16070312 -18.91796875 22.59765625 C-26.27978136 27.55617544 -31.99788437 35.53935832 -33.8125 44.3125 C-34.85406185 54.2009082 -33.64277572 62.7249942 -27.96484375 71.0078125 C-21.72130927 78.59976912 -13.63403726 83.80771752 -3.8125 85.3125 C5.77512229 85.96250829 14.64785745 83.36843779 22.1875 77.3125 C29.40441739 70.75647248 33.43446437 63.81527639 34.5625 54.07421875 C34.93825655 44.08144287 32.2672754 36.01193978 26.0234375 28.19921875 C19.44553935 21.43937874 11.96837897 17.14513152 2.42773438 16.93212891 C-4.77120685 16.95096534 -10.62442848 17.33179668 -16.8125 21.3125 Z " fill="#ffffff" transform="translate(127.8125,23.6875)"/>
</svg>
